<?xml version="1.0" encoding="utf-8" ?>
<svg xmlns="http://www.w3.org/2000/svg" xmlns:xlink="http://www.w3.org/1999/xlink" width="1024" height="1024">
	<path d="M840.159 136.274C870.445 134.367 921.78 136.494 950.595 144.988C958.985 147.461 967.162 150.991 974.417 155.912C983.985 162.401 991.206 171.275 993.357 182.836C996.151 197.854 990.656 212.616 982.097 224.797C956.182 261.681 907.561 279.633 866.168 291.996C853.161 295.881 839.662 299.969 826.302 302.318C825.234 312.161 817.449 365.504 812.912 370.704C809.428 374.698 801.907 374.817 796.991 375.111C795.403 379.959 794.52 384.983 793.756 390.016C815.252 384.576 849.638 375.842 871.39 376.361C892.241 376.858 913.022 384.496 927.518 399.799C946.388 419.72 952.889 446.305 952.106 473.088C951.054 509.066 939.918 539.783 913.411 564.855C919.638 573.263 926.402 581.289 932.911 589.479Q958.098 621.335 984.653 652.059C994.703 663.677 1005.56 674.881 1015.18 686.826C1004.37 689.312 993.4 690.746 982.96 694.717L989.765 706.189C982.285 705.927 974.585 703.378 967.261 701.797C966.997 702.446 966.744 703.089 966.401 703.702C961.118 713.165 948.22 708.037 944.833 709.722C940.905 711.677 924.663 732.767 921.611 737.353C919.297 740.828 917.411 744.581 915.498 748.287C911.513 742.402 908.138 736.109 904.129 730.207C890.616 710.313 877.159 690.459 864.064 670.277C856.598 658.769 848.988 647.325 842.32 635.329C839.887 642.444 839.401 651.212 838.313 658.696C835.701 676.672 833.497 694.725 830.748 712.676C799.714 715.769 771.146 728.352 742.598 739.934C735.716 742.726 728.623 744.391 721.953 747.738C722.342 747.098 722.725 746.462 723.079 745.802C724.159 743.787 725.673 741.342 724.959 739.053L724.115 739.946L724.412 739.239C717.644 744.784 710.393 747.811 702.444 751.253L727.424 687.225C717.11 690.586 706.952 694.931 696.826 698.836C686.865 702.677 676.66 706.191 666.872 710.442C665.646 716.908 665.279 723.669 664.707 730.226Q663.091 749.479 661.871 768.761Q656.252 765.424 651.054 761.464C647.247 758.528 639.224 750.411 635.406 749.039L634.287 750.591C629.917 750.466 608.34 726.863 604.343 722.649Q603.3 740.263 601.775 757.842C591.215 751.508 581.739 743.437 571.358 736.87L570.737 737.053C570.566 738.06 570.444 738.85 569.928 739.74C566.852 739.725 556.061 732.373 552.742 730.391C550.669 739.429 550.949 748.793 549.094 757.784C548.677 759.807 548.243 761.231 546.435 762.43C540.704 763.718 521.147 754.693 514.37 752.549L509.738 760.872C503.372 757.43 498.871 754.26 494.199 748.725C493.257 761.448 489.823 773.978 488.714 786.742C480.542 783.335 472.908 777.771 464.989 773.664L464.903 782.131C457.779 779.645 451.203 776.6 444.695 772.793C444.91 775.259 445.251 777.631 445.688 780.065C437.105 778.494 418.656 773.628 413.758 766.391C410.201 761.136 411.049 754.429 412.121 748.542C399.393 746.938 388.743 742.002 378.278 734.776C376.984 749.169 373.862 763.806 371.876 778.155C369.39 796.113 367.838 814.485 364.643 832.294C358.881 829.888 353.409 827.031 347.939 824.037C343.516 821.683 339.243 821.015 334.766 819.146C330.622 817.416 326.976 814.408 323.369 811.787C321.61 810.508 317.714 807.136 315.607 807.242Q315.428 809.14 315.167 811.028L314.403 811.504C308.354 809.48 291.487 797.694 287.716 792.555C282.778 785.824 292.521 734.961 294.303 724.517C283.996 730.035 273.72 735.552 263.316 740.886C260.465 760.273 257.162 779.627 254.903 799.093Q252.387 820.469 250.785 841.933C250.258 848.177 250.336 854.592 249.364 860.781C249.027 862.93 248.568 864.579 247.322 866.365C245.433 867.57 243.19 867.398 241.075 866.951C235.479 865.77 229.782 862.62 224.587 860.274C208.237 852.889 170.854 835.111 161.649 820.608C153.5 807.768 160.728 782.901 163.737 768.699C156.252 770.607 148.947 773.13 141.64 775.614C144.252 764.268 145.958 752.63 149.047 741.413C144.945 737.397 140.612 734.869 136.954 730.2C121.663 738.576 108.987 757.794 97.5737 770.859L97.1967 771.285Q95.8591 755.552 96.0613 739.763L88.7828 745.643Q88.7255 744.961 88.6921 744.277C88.4151 738.62 88.9296 732.777 89.4215 727.137Q89.6861 724.124 90.0741 721.124Q90.4621 718.125 90.9729 715.144Q91.4837 712.163 92.1165 709.205Q92.7493 706.247 93.503 703.318Q94.2566 700.389 95.1299 697.493Q96.0032 694.598 96.9946 691.74Q97.986 688.883 99.0939 686.068Q100.202 683.254 101.424 680.487Q102.647 677.721 103.982 675.007Q105.317 672.293 106.762 669.636Q108.207 666.979 109.761 664.384Q111.314 661.789 112.972 659.259Q114.631 656.73 116.392 654.271Q118.152 651.812 120.013 649.427Q121.873 647.042 123.83 644.736Q125.786 642.429 127.836 640.205L128.286 639.715C126.526 639.124 121.811 641.028 119.592 641.381C114.222 642.234 108.784 642.677 103.404 641.699C88.7893 639.04 82.851 627.794 72.3818 619.073C68.2855 615.66 63.2651 613.321 58.825 610.377C51.662 605.629 43.1833 595.481 38.096 588.659C34.2324 583.479 32.0329 577.568 29.0954 571.87C26.9692 567.745 24.2755 563.931 21.6375 560.123L27.6 559.391C84.9992 552.239 187.744 524.99 224.76 476.986C235.062 463.625 240.008 450.003 237.862 433.185C231.63 430.516 224.602 429.239 218.093 427.333Q208.683 424.637 199.626 420.923Q190.569 417.21 181.974 412.524C164.374 402.763 146.755 387.626 141.147 367.543C135.92 348.824 140.436 329.267 149.856 312.701C183.988 252.68 296.122 214.688 360.011 196.832C372.679 193.291 385.673 191.329 398.299 187.888C392.329 193.017 385.359 196.471 378.937 200.952C383.129 200.351 387.314 199.131 391.329 197.81C389.34 200.007 387.366 202.157 384.986 203.941C383.246 205.244 380.798 206.209 379.378 207.803L379.849 208.081C392.055 205.442 404.425 203.668 416.552 200.518C407.968 210.07 400.104 220.599 393.17 231.409C388.97 237.956 385.25 245.398 380.262 251.342C391.363 248.147 405.921 241.376 417.225 237.076Q452.953 223.493 489.124 211.137C602.548 171.931 719.737 141.277 840.159 136.274Z"/>
	<defs>
		<linearGradient id="gradient_0" gradientUnits="userSpaceOnUse" x1="747.37781" y1="522.21948" x2="720.07281" y2="426.82346">
			<stop offset="0" stop-color="#FBBF2C"/>
			<stop offset="1" stop-color="#FFEE3B"/>
		</linearGradient>
	</defs>
	<path fill="url(#gradient_0)" d="M529.858 489.585C538.585 486.967 547.225 482.865 555.74 479.556Q577.796 471.044 600.118 463.255Q644.531 447.865 689.733 434.975C735.135 421.695 780.761 409.792 827.315 401.287C840.914 398.802 854.8 394.988 868.715 395.268Q870.369 395.286 872.019 395.387Q873.67 395.488 875.314 395.671Q876.957 395.855 878.59 396.12Q880.222 396.385 881.839 396.732Q883.456 397.079 885.054 397.506Q886.652 397.933 888.226 398.44Q889.8 398.947 891.347 399.532Q892.894 400.116 894.41 400.778Q895.926 401.439 897.406 402.176Q898.887 402.912 900.329 403.722Q901.771 404.532 903.171 405.413Q904.571 406.293 905.925 407.243Q907.278 408.193 908.583 409.209Q909.888 410.226 911.14 411.306Q912.392 412.386 913.589 413.528Q914.785 414.67 915.923 415.87Q916.959 416.982 917.942 418.142Q918.924 419.303 919.849 420.509Q920.775 421.715 921.642 422.964Q922.509 424.213 923.315 425.502Q924.121 426.79 924.865 428.116Q925.608 429.442 926.288 430.802Q926.967 432.162 927.581 433.553Q928.194 434.944 928.741 436.363Q929.287 437.781 929.765 439.225Q930.243 440.668 930.651 442.132Q931.06 443.596 931.398 445.079Q931.736 446.561 932.002 448.057Q932.269 449.554 932.464 451.062Q932.659 452.57 932.781 454.085Q932.904 455.6 932.954 457.12Q933.004 458.639 932.981 460.159C933.847 481.874 927.727 504.781 916.441 523.345C914.597 526.377 912.403 530.214 909.944 532.738C909.842 532.842 909.729 532.936 909.622 533.034C909.634 532.842 909.623 532.647 909.659 532.457C910.309 528.964 914.558 524.93 916.329 521.72C916.465 521.475 916.513 521.191 916.604 520.926C909.978 518.524 895.617 524.372 888.786 525.959C883.203 527.257 877.507 527.904 871.903 529.072C863.66 530.791 854.362 533.658 846.704 537.234C836.848 541.836 827.77 548.267 818.383 553.72C809.9 558.648 801.053 561.791 792.024 565.432C788.468 566.866 785.053 568.704 781.358 569.746L780.25 575.177C774.127 577.467 767.573 579.061 761.723 581.986C764.182 584.303 771.416 591.093 771.562 594.494L770.956 594.586C767.728 589.851 764.102 585.612 760.222 581.411C766.494 578.594 773.088 576.562 779.603 574.387C783.499 549.847 785.289 524.896 789.486 500.406C790.077 491.479 791.509 482.513 792.777 473.659Q787.401 474.999 782.054 476.453C781.991 465.973 783.187 455.493 775.119 447.54Q774.475 446.906 773.824 446.278C788.22 438.88 804.451 434.761 819.546 429.012C813.624 428.995 807.165 430.875 801.364 432.066Q773.35 437.95 745.845 445.876Q718.339 453.801 691.49 463.726C681.456 467.326 670.537 470.451 661.291 475.765Q659.706 489.085 658.627 502.456C658.253 501.871 657.983 501.578 657.481 501.121C657.004 501.499 655.995 502.537 655.476 502.708C654.068 503.172 650.702 502.683 648.986 502.719C644.833 502.808 637.637 503.13 633.775 504.636C632.083 505.296 622.473 511.774 621.577 513.12C620.762 514.344 620.815 516.476 619.505 517.144C619.443 515.742 619.474 514.29 619.117 512.926C618.896 508.374 621.777 495.897 619.669 492.413C617.399 492.034 614.76 492.719 612.578 493.378C606.954 495.076 601.381 497.528 595.857 499.555C578.217 506.026 560.762 513.13 542.916 519.017C542.576 512.524 543.677 501.84 540.551 496.095C538.254 491.874 534.085 490.929 529.858 489.585Z"/>
	<defs>
		<linearGradient id="gradient_1" gradientUnits="userSpaceOnUse" x1="864.51379" y1="540.22186" x2="845.01923" y2="484.94797">
			<stop offset="0" stop-color="#EC6227"/>
			<stop offset="1" stop-color="#FABB2C"/>
		</linearGradient>
	</defs>
	<path fill="url(#gradient_1)" d="M833.19 452.782C839.642 446.705 852.181 442.36 861.011 442.621C866.762 442.791 872.168 444.891 875.994 449.282C882.664 456.938 882.222 467.209 881.363 476.626L881.961 477.192L881.734 479.745Q882.241 478.938 882.765 478.143C896.917 473.817 916.805 464.053 931.077 463.628C931.49 464.307 931.689 464.786 932.37 465.223L932.834 464.249C932.49 463.027 932.286 462.327 932.673 461.084C932.77 460.774 932.879 460.467 932.981 460.159C933.847 481.874 927.727 504.781 916.441 523.345C914.597 526.377 912.403 530.214 909.944 532.738C909.842 532.842 909.729 532.936 909.622 533.034C909.634 532.842 909.623 532.647 909.659 532.457C910.309 528.964 914.558 524.93 916.329 521.72C916.465 521.475 916.513 521.191 916.604 520.926C909.978 518.524 895.617 524.372 888.786 525.959C883.203 527.257 877.507 527.904 871.903 529.072C863.66 530.791 854.362 533.658 846.704 537.234C836.848 541.836 827.77 548.267 818.383 553.72C809.9 558.648 801.053 561.791 792.024 565.432C788.468 566.866 785.053 568.704 781.358 569.746L780.25 575.177C774.127 577.467 767.573 579.061 761.723 581.986C764.182 584.303 771.416 591.093 771.562 594.494L770.956 594.586C767.728 589.851 764.102 585.612 760.222 581.411C766.494 578.594 773.088 576.562 779.603 574.387C783.499 549.847 785.289 524.896 789.486 500.406C790.32 502.397 789.895 505.016 789.385 507.068C789.313 507.357 789.231 507.644 789.155 507.932L789.485 508.032Q789.645 507.343 789.823 506.658C790.15 505.441 790.314 504.641 791.467 504.048C793.648 502.927 796.457 502.304 798.8 501.549C807.881 498.624 817.404 495.607 826.877 498.48L827.587 498.702L827.478 498.459L828.586 499.056C828.769 498.177 828.712 498.565 828.805 497.596L828.868 496.882L829.851 496.654C832.96 482.588 832.727 467.14 833.19 452.782Z"/>
	<path d="M833.19 452.782C839.642 446.705 852.181 442.36 861.011 442.621C866.762 442.791 872.168 444.891 875.994 449.282C882.664 456.938 882.222 467.209 881.363 476.626C879.683 481.853 878.521 487.287 876.259 492.317C867.873 510.965 849.172 528.901 830.969 538.069C829.034 539.044 827.026 539.796 824.95 540.41C825.067 530.051 826.874 519.717 828.323 509.48C828.899 505.417 830.013 500.705 829.851 496.654C832.96 482.588 832.727 467.14 833.19 452.782Z"/>
	<defs>
		<linearGradient id="gradient_2" gradientUnits="userSpaceOnUse" x1="257.85193" y1="568.84259" x2="215.56526" y2="455.98346">
			<stop offset="0" stop-color="#DD0428"/>
			<stop offset="1" stop-color="#EB532A"/>
		</linearGradient>
	</defs>
	<path fill="url(#gradient_2)" d="M298.771 348.655C301.965 355.147 303.904 362.748 306.107 369.657C312.537 389.817 318.937 410.588 322.277 431.513C322.523 432.034 322.779 432.674 323.108 433.156C323.867 434.269 324.009 434.51 325.253 434.807C326.906 433.746 327.762 431.751 328.721 430.086C333.996 426.257 332.974 416.617 337.776 412.118C343.524 406.732 365.381 401.012 373.571 397.836C379.254 395.632 384.765 392.72 390.559 390.852C392.792 390.132 394.912 389.698 397.262 389.753C398.158 389.774 398.925 389.837 399.789 389.547C399.997 389.477 400.2 389.393 400.406 389.317C400.028 391.748 397.82 394.312 398.043 396.749C398.066 396.998 398.107 397.245 398.139 397.493C388.623 421.213 378.224 444.65 368.074 468.104L357.637 492.116C355.855 496.197 354.24 500.638 352.113 504.539C351.561 505.551 351.24 506.467 350.037 506.834C349.898 506.876 348.723 506.935 348.635 506.942C344.742 507.254 340.977 511.428 337.602 513.383C338.273 510.32 339.012 507.272 339.3 504.144C327.427 512.174 318.559 520.061 305.713 527.465C305.967 523.569 305.774 520.276 304.647 516.488C291.946 527.322 281.608 537.703 267.747 547.517C231.116 573.456 183.924 597.897 141.973 613.542C131.692 617.376 118.168 622.845 107.172 621.857C102.93 621.476 100.508 619.391 97.6246 616.449C100.295 615.297 105.482 613.81 106.966 611.193L106.59 610.588C104.003 610.295 101.422 610.775 98.8377 610.976C90.0639 611.66 81.9666 610.509 76.1816 603.171C66.1211 590.409 63.9733 586.93 49.0281 579.328Q55.6213 578.94 62.2236 578.763C57.9994 576.211 53.4682 574.88 48.7465 573.549C58.5556 572.26 68.3049 570.908 77.9765 568.799C118.75 559.911 172.93 540.345 208.16 518.233C222.583 509.181 236.698 497.931 247.084 484.38C250.995 479.277 254.04 473.903 256.484 467.963C257.422 465.684 258.112 462.741 259.285 460.636C264.988 432.457 255.252 407.364 247.191 380.949C248.719 382.203 249.023 383.66 249.521 385.489C253.392 382.501 256.934 379.286 261.032 376.571C266.356 373.044 272.356 370.481 277.969 367.447C283.389 364.518 288.64 360.87 294.327 358.497C296.215 357.71 298.083 357.28 300.091 356.963L300.765 356.863L298.164 349.301L298.771 348.655Z"/>
	<defs>
		<linearGradient id="gradient_3" gradientUnits="userSpaceOnUse" x1="297.2832" y1="430.32333" x2="266.65121" y2="372.92749">
			<stop offset="0" stop-color="#ED6328"/>
			<stop offset="1" stop-color="#FAB62E"/>
		</linearGradient>
	</defs>
	<path fill="url(#gradient_3)" d="M298.771 348.655C301.965 355.147 303.904 362.748 306.107 369.657C312.537 389.817 318.937 410.588 322.277 431.513C322.114 431.291 321.943 431.075 321.787 430.848C319.687 427.773 320.678 422.778 318.791 419.537C316.546 419.752 314.44 420.387 312.335 421.168C306.835 423.208 301.569 426.133 296.164 428.454C288.723 431.649 268.397 438.884 262.91 443.143C260.177 448.349 263.268 455.992 259.285 460.636C264.988 432.457 255.252 407.364 247.191 380.949C248.719 382.203 249.023 383.66 249.521 385.489C253.392 382.501 256.934 379.286 261.032 376.571C266.356 373.044 272.356 370.481 277.969 367.447C283.389 364.518 288.64 360.87 294.327 358.497C296.215 357.71 298.083 357.28 300.091 356.963L300.765 356.863L298.164 349.301L298.771 348.655Z"/>
	<defs>
		<linearGradient id="gradient_4" gradientUnits="userSpaceOnUse" x1="681.80768" y1="283.24802" x2="651.10071" y2="181.45639">
			<stop offset="0" stop-color="#F79F28"/>
			<stop offset="1" stop-color="#FFF039"/>
		</linearGradient>
	</defs>
	<path fill="url(#gradient_4)" d="M367.492 278.146C379.087 272.675 391.066 268.264 403.048 263.733Q426.706 254.797 450.468 246.14Q513.64 222.674 578.084 202.97C594.497 197.968 610.919 192.86 627.533 188.557Q674.365 175.99 722.055 167.228C776.703 157.326 909.498 139.801 957.182 168.271C963.498 172.042 968.881 177.259 970.568 184.692C972.248 192.092 970.127 199.704 966.265 206.053C965.204 204.484 970.298 196.954 969.713 193.864L969.009 194.376L969.558 194.082L969.151 193.663C965.737 193.629 954.768 194.297 952.345 196.999C950.976 198.526 951.535 200.828 949.901 202.355C951.011 196.581 951.676 191.172 948.273 185.928C944.483 180.089 937.798 177.955 931.31 176.76C900.057 171.001 837.177 182.326 806.267 190.847C799.583 192.689 790.294 194.53 784.62 198.566C778.326 203.042 776.739 223.556 775.642 231.161C763.137 235.869 748.877 238.738 735.907 242.315C731.746 243.463 727.349 244.39 723.327 245.953C722.046 252.496 721.183 259.155 719.814 265.665L718.892 265.869L718.824 267.239C715.975 269.138 708.992 268.27 704.358 271.655C696.142 277.659 684.637 278.912 676.375 285.123L675.97 284.752C676.199 283.402 676.571 282.23 676.178 280.894L675.854 280.625C676.757 266.723 681.635 246.749 679.353 233.618C678.675 229.718 677.205 226.273 675.512 222.719C689.479 215.787 704.927 211.035 719.715 206.185C725.569 204.265 731.687 202.622 737.35 200.218C727.676 201.538 718.052 203.472 708.456 205.263C632.477 219.444 558.35 245.515 486.591 273.831C479.82 276.503 453.809 285.9 450.159 290.657C449.132 291.995 448.152 294.079 446.95 295.177C445.22 295.919 444.708 296.989 443.89 298.618C443.444 299.506 443.193 299.889 442.26 300.34C439.493 300.576 436.554 300.448 433.828 300.856C427.564 301.793 421.303 303.888 415.011 304.982C408.386 306.134 401.692 306.702 395.096 308.067C387.404 309.66 379.674 311.977 371.82 312.559C374.141 305.528 379.437 294.012 377.077 286.871C375.537 282.209 371.59 280.165 367.492 278.146Z"/>
	<defs>
		<linearGradient id="gradient_5" gradientUnits="userSpaceOnUse" x1="597.6958" y1="335.38962" x2="578.24323" y2="288.65936">
			<stop offset="0" stop-color="#EB6227"/>
			<stop offset="1" stop-color="#FBB62D"/>
		</linearGradient>
	</defs>
	<path fill="url(#gradient_5)" d="M532.753 275.633C531.411 273.98 529.268 272.414 528.311 270.515C527.638 269.181 527.734 268.392 528.102 266.995C531.692 262.681 577.011 248.338 585.437 246.197C604.069 241.463 626.775 238.485 644.095 248.963C650.184 252.646 654.044 257.743 655.792 264.639C657.994 273.291 654.681 283.622 650.244 291.094C644.568 300.65 636.448 306.739 627.695 313.23C631.499 314.531 635.453 315.686 638.945 317.71C644.354 320.027 649.011 324.567 651.253 330.012C655.195 339.592 652.75 351.59 648.696 360.721C633.813 394.244 589.242 412.779 557.011 425.004C540.782 431.16 524.287 436.352 507.761 441.639C510.996 435.642 511.806 428.402 512.963 421.76Q515.663 406.293 518.021 390.771C518.849 385.427 519.322 379.575 520.733 374.368C520.764 366.718 522.916 358.302 524.027 350.663L530.147 305.932C530.107 302.786 530.794 299.328 531.124 296.182C531.843 289.333 532.516 282.519 532.753 275.633Z"/>
	<defs>
		<linearGradient id="gradient_6" gradientUnits="userSpaceOnUse" x1="591.02515" y1="409.68109" x2="562.85315" y2="345.80515">
			<stop offset="0" stop-color="#DE0A26"/>
			<stop offset="1" stop-color="#EC5D28"/>
		</linearGradient>
	</defs>
	<path fill="url(#gradient_6)" d="M633.783 316.311C635.599 317.178 636.898 317.931 638.945 317.71C644.354 320.027 649.011 324.567 651.253 330.012C655.195 339.592 652.75 351.59 648.696 360.721C633.813 394.244 589.242 412.779 557.011 425.004C540.782 431.16 524.287 436.352 507.761 441.639C510.996 435.642 511.806 428.402 512.963 421.76Q515.663 406.293 518.021 390.771C518.849 385.427 519.322 379.575 520.733 374.368C522.99 373.333 521.554 366.379 523.624 364.094C525.387 362.15 560.245 348.149 563.734 348.89C564.954 349.15 565.171 349.305 565.788 350.348C565.518 351.516 565.301 352.563 565.238 353.766L565.974 354.089L567.457 346.252C578 340.926 589.255 338.871 600.973 340.155C599.997 337.751 590.44 339.999 587.587 338.216C587.634 338.069 587.661 337.913 587.728 337.773C590.048 332.898 611.297 326.021 617.166 323.591Q625.533 320.084 633.783 316.311Z"/>
	<path d="M567.457 346.252C578 340.926 589.255 338.871 600.973 340.155C603.639 341.53 606.526 343.004 607.452 346.09C608.762 350.456 606.698 356.037 604.474 359.76C596.503 373.101 577.261 383.572 562.572 387.078Q561.902 387.237 561.229 387.38C562.301 376.235 564.139 365.131 565.974 354.089L567.457 346.252Z"/>
	<defs>
		<linearGradient id="gradient_7" gradientUnits="userSpaceOnUse" x1="593.11584" y1="290.901" x2="578.27014" y2="248.50087">
			<stop offset="0" stop-color="#F8AE2B"/>
			<stop offset="1" stop-color="#FFDC35"/>
		</linearGradient>
	</defs>
	<path fill="url(#gradient_7)" d="M532.753 275.633C531.411 273.98 529.268 272.414 528.311 270.515C527.638 269.181 527.734 268.392 528.102 266.995C531.692 262.681 577.011 248.338 585.437 246.197C604.069 241.463 626.775 238.485 644.095 248.963C650.184 252.646 654.044 257.743 655.792 264.639L655.194 265.195C655.084 265.029 654.976 264.862 654.864 264.698C653.907 263.286 653.324 262.518 651.79 261.764C644.234 261.167 631.156 269.888 624.494 273.348C621.186 275.066 616.564 276.765 613.844 279.232C612.389 280.551 612.816 282.372 612.313 284.082C611.328 281.082 610.562 278.877 607.583 277.431C600.615 274.047 590.705 277.508 583.937 280.073C580.793 281.265 577.297 282.656 575.918 285.964C574.126 290.26 574.026 295.279 572.874 299.773C572.443 298.037 572.488 297.077 570.843 296.092C568.081 294.439 564.428 295.313 561.569 296.184C550.13 299.671 539.522 305.702 530.115 312.947C530.02 311.973 530.106 311.354 530.355 310.43C530.771 308.888 530.585 307.453 530.147 305.932C530.107 302.786 530.794 299.328 531.124 296.182C531.843 289.333 532.516 282.519 532.753 275.633Z"/>
	<path d="M572.874 299.773C574.026 295.279 574.126 290.26 575.918 285.964C577.297 282.656 580.793 281.265 583.937 280.073C590.705 277.508 600.615 274.047 607.583 277.431C610.562 278.877 611.328 281.082 612.313 284.082C609.75 294.781 604.844 300.674 595.504 306.407C591.398 308.927 577.885 315.722 573.421 314.859C572.12 314.608 571.953 314.392 571.229 313.388C570.692 308.817 572.643 304.299 572.874 299.773Z"/>
	<defs>
		<linearGradient id="gradient_8" gradientUnits="userSpaceOnUse" x1="860.24139" y1="717.19147" x2="823.62372" y2="537.70374">
			<stop offset="0" stop-color="#DE0029"/>
			<stop offset="1" stop-color="#EA5227"/>
		</linearGradient>
	</defs>
	<path fill="url(#gradient_8)" d="M781.358 569.746C785.053 568.704 788.468 566.866 792.024 565.432C801.053 561.791 809.9 558.648 818.383 553.72C827.77 548.267 836.848 541.836 846.704 537.234C854.362 533.658 863.66 530.791 871.903 529.072C877.507 527.904 883.203 527.257 888.786 525.959C895.617 524.372 909.978 518.524 916.604 520.926C916.513 521.191 916.465 521.475 916.329 521.72C914.558 524.93 910.309 528.964 909.659 532.457C909.623 532.647 909.634 532.842 909.622 533.034C901.71 544.366 891.446 552.427 880.179 560.147C887 571.009 896.304 580.895 904.581 590.698Q925.578 615.834 947.02 640.594C956.802 651.768 967.629 662.779 976.419 674.751C972.123 673.15 967.8 672.04 963.291 671.214C965.245 675.609 967.352 679.982 968.709 684.606C961.69 679.802 954.39 674.47 946.539 671.141C948.503 674.781 950.606 678.405 952.318 682.17C948.292 683.565 943.533 686.097 939.354 686.619L937.381 685.434C934.051 687.66 922.537 703.325 920.194 707.099C912.123 696.819 905.069 685.008 897.925 674.021Q877.49 642.642 857.833 610.77C853.496 603.755 842.484 583.313 837.93 579.153C833.51 578.635 825.327 583.99 822.009 586.638Q821.128 587.329 820.316 588.099C818.459 595.889 817.605 604.071 816.395 611.992L808.969 661.035C807.595 670.408 806.697 680.226 804.646 689.457C791.791 693.012 778.859 697.402 766.691 702.869C764.56 703.827 756.009 709.881 754.663 709.83C754.746 708.717 755.197 706.991 754.566 706.086C750.752 708.351 747.972 711.929 744.178 714.247Q744.767 709.847 745.265 705.435C740.782 709.716 736.562 713.42 731.156 716.471C754.017 692.744 764.207 656.245 769.728 624.575C771.047 617.003 772.885 608.744 772.753 601.048C772.711 598.649 772.018 596.701 770.956 594.586L771.562 594.494C771.416 591.093 764.182 584.303 761.723 581.986C767.573 579.061 774.127 577.467 780.25 575.177L781.358 569.746Z"/>
	<defs>
		<linearGradient id="gradient_9" gradientUnits="userSpaceOnUse" x1="311.37289" y1="648.7066" x2="262.60464" y2="566.96057">
			<stop offset="0" stop-color="#F9A52A"/>
			<stop offset="1" stop-color="#FFF23A"/>
		</linearGradient>
	</defs>
	<path fill="url(#gradient_9)" d="M122.806 671.422C123.643 669.38 124.577 667.388 125.796 665.542C157.746 617.163 313.116 538 370.136 514.093C403.386 500.153 438.292 487.558 473.738 480.613C466.2 484.342 418.884 502.366 416.288 505.452C415.709 507.082 416.093 508.302 416.444 509.967L416.604 510.699C415.425 513.766 405.51 517.373 402.407 518.937C405.261 518.956 408.221 518.78 410.952 519.697L410.941 520.106C407.69 522.857 403.479 524.733 399.829 526.965C391.146 532.276 382.536 537.961 373.53 542.703Q377.028 543.036 380.513 543.489C368.271 549.309 356.421 556.129 344.53 562.635Q315.712 578.111 287.61 594.853C278.863 600.081 267.371 605.71 259.887 612.492C252.755 618.955 248.593 650.181 248.022 660.437C258.573 658.367 268.824 652.127 278.424 647.419Q293.067 640.143 308.059 633.619C306.562 639.978 305.429 646.448 304.183 652.862L302.974 654.146C301.88 653.996 301.924 653.974 301.073 653.476C298.317 651.862 292.582 653.293 289.574 654.174C285.229 655.448 281.037 657.366 277.035 659.464C264.84 665.853 253.595 674.514 241.048 680.117C231.284 684.478 221.12 688.227 211.083 691.919C204.846 694.213 198.179 696.191 192.298 699.306L191.287 699.149C190.34 697.05 193.013 692.901 191.327 691.574C191.92 685.203 193.502 678.488 194.964 672.257C196.191 667.028 199.31 659.486 198.793 654.218L197.888 654.107C193.678 655.942 190.006 659.271 186.046 661.656C156.134 679.666 126.421 702.046 105.447 730.23C108.01 718.514 110.452 706.233 115.905 695.466C117.714 691.894 122.693 688.562 123.637 684.979C122.646 684.193 122.025 683.749 121.485 682.569C122.103 678.015 127.96 672.251 130.235 668.017L130.56 667.403C127.941 668.655 125.378 670.075 122.806 671.422Z"/>
	<defs>
		<linearGradient id="gradient_10" gradientUnits="userSpaceOnUse" x1="298.95444" y1="364.97165" x2="253.79507" y2="257.27899">
			<stop offset="0" stop-color="#FBBF2D"/>
			<stop offset="1" stop-color="#FFEF3D"/>
		</linearGradient>
	</defs>
	<path fill="url(#gradient_10)" d="M215.06 401.13C202.666 398.647 191.256 395.074 180.524 388.178C170.356 381.644 162.574 372.416 160.04 360.385C156.894 345.452 161.345 331.07 169.663 318.604C199.792 273.455 285.322 240.881 335.289 226.407Q357.796 219.938 380.804 215.577C354.756 230.64 308.416 257.163 293.589 284.307C280.236 308.754 291.856 325.317 298.771 348.655L298.164 349.301L300.765 356.863L300.091 356.963C298.083 357.28 296.215 357.71 294.327 358.497C288.64 360.87 283.389 364.518 277.969 367.447C272.356 370.481 266.356 373.044 261.032 376.571C256.934 379.286 253.392 382.501 249.521 385.489C249.023 383.66 248.719 382.203 247.191 380.949C245.593 378.503 244.676 374.713 243.651 371.961C239.518 360.869 233.775 341.991 224.264 334.761C221.685 332.8 218.204 332.317 215.084 332.92C207.087 334.468 199.593 342.077 195.176 348.564C190.637 355.232 188.972 362.572 190.621 370.516C193.33 383.565 204.324 394.123 215.06 401.13Z"/>
	<defs>
		<linearGradient id="gradient_11" gradientUnits="userSpaceOnUse" x1="247.99071" y1="727.53778" x2="227.37112" y2="680.94757">
			<stop offset="0" stop-color="#E64825"/>
			<stop offset="1" stop-color="#F8A02B"/>
		</linearGradient>
	</defs>
	<path fill="url(#gradient_11)" d="M191.327 691.574C193.013 692.901 190.34 697.05 191.287 699.149L192.298 699.306C198.179 696.191 204.846 694.213 211.083 691.919C221.12 688.227 231.284 684.478 241.048 680.117C253.595 674.514 264.84 665.853 277.035 659.464C281.037 657.366 285.229 655.448 289.574 654.174C292.582 653.293 298.317 651.862 301.073 653.476C301.924 653.974 301.88 653.996 302.974 654.146L304.183 652.862C302.463 662.027 301.474 670.888 300.631 680.168C294.927 683.902 288.401 686.598 282.346 689.757Q266.559 698.03 251.363 707.344C246.847 710.149 241.729 713.063 237.898 716.734C234.384 729.655 233.854 743.501 231.562 756.694C229.592 777.189 227.369 797.561 225.942 818.111C225.381 826.186 224.138 834.875 225.009 842.908C221.413 840.223 214.801 833.779 210.598 833.263C209.954 834.351 209.967 835.235 209.88 836.466C207.734 836.954 203.082 834.673 201.221 833.461C195.999 830.061 193.515 824.319 191.244 818.784C189.544 820.115 187.914 821.635 185.843 822.326C184.225 822.114 183.277 821.665 182.298 820.368C175.108 810.841 177.583 790.032 178.928 778.752C179.284 775.766 179.402 772.286 180.186 769.411C180.228 769.255 180.307 769.111 180.368 768.961C181.109 758.345 183.35 747.834 184.244 737.214C177.205 739.827 169.708 743.444 163.363 747.458C165.077 745.103 170.746 739.668 171.078 737.586C169.68 736.703 168.228 737.086 166.598 737.135C167.629 735.103 168.868 733.149 170.031 731.188C170.82 729.857 171.79 728.262 171.239 726.655C170.363 724.104 166.773 722.922 164.524 721.808C171.927 714.615 181.782 710.175 189.266 703.134C190.267 699.344 190.235 695.353 191.327 691.574Z"/>
	<path fill="#E52F27" d="M182.814 754.582C200.322 749.41 216.901 741.556 233.569 734.224L234.067 734.562C233.078 738.828 230.525 751.944 231.342 755.787C231.407 756.092 231.489 756.392 231.562 756.694C229.592 777.189 227.369 797.561 225.942 818.111C225.381 826.186 224.138 834.875 225.009 842.908C221.413 840.223 214.801 833.779 210.598 833.263C209.954 834.351 209.967 835.235 209.88 836.466C207.734 836.954 203.082 834.673 201.221 833.461C195.999 830.061 193.515 824.319 191.244 818.784C189.544 820.115 187.914 821.635 185.843 822.326C184.225 822.114 183.277 821.665 182.298 820.368C175.108 810.841 177.583 790.032 178.928 778.752C179.284 775.766 179.402 772.286 180.186 769.411C180.228 769.255 180.307 769.111 180.368 768.961L180.88 769.073C182.284 764.753 182.366 759.123 182.814 754.582Z"/>
	<defs>
		<linearGradient id="gradient_12" gradientUnits="userSpaceOnUse" x1="568.87189" y1="719.89844" x2="530.13959" y2="593.90363">
			<stop offset="0" stop-color="#DD0027"/>
			<stop offset="1" stop-color="#F79C2A"/>
		</linearGradient>
	</defs>
	<path fill="url(#gradient_12)" d="M568.819 584.459C575.136 580.876 588.001 574.758 595.388 576.455C596.475 576.705 597.476 577.257 598.087 578.214C598.656 579.103 598.313 580.532 598.154 581.531C597.954 582.786 598.11 583.818 598.351 585.052C597.856 595.576 596.039 606.282 594.711 616.737L588.64 664.805L584.089 701.036C583.367 706.904 582.911 712.916 581.88 718.728C576.038 712.744 570.347 706.441 564.149 700.83C563.551 702.353 563.213 703.824 561.706 704.675C560.465 704.705 559.825 704.574 558.925 703.632C558.465 703.151 557.728 702.202 557.468 701.587C555.971 698.046 559.719 665.74 560.396 659.364C561.516 648.813 562.599 638.223 564.033 627.71C555.352 630.191 545.951 633.412 538.174 638.013C536.498 645.958 535.682 654.182 534.62 662.232C531.341 687.074 529.486 712.103 524.019 736.587C521.686 734.43 515.212 726.797 512.294 726.514C511.655 727.352 511.245 728.038 510.303 728.555C508.148 726.562 507.991 719.01 507.619 715.972C505.821 719.313 503.953 722.519 501.514 725.444C499.342 723.654 497.218 721.767 494.819 720.286C496.106 711.85 496.819 703.35 497.973 694.899L506.417 634.734C507.196 629.231 507.58 618.093 509.359 613.416L509.926 613.569C510.785 611.199 510.651 608.454 511.357 605.995C511.925 604.017 512.887 602.596 514.789 601.653C518.951 599.59 540.203 591.039 543.478 592.259C543.398 593.302 543.431 594.184 543.581 595.219L544.156 594.967C544.308 594.967 544.46 594.977 544.611 594.967C551.725 594.509 564.13 589.967 568.819 584.459Z"/>
	<defs>
		<linearGradient id="gradient_13" gradientUnits="userSpaceOnUse" x1="730.1275" y1="373.12103" x2="696.66388" y2="293.41003">
			<stop offset="0" stop-color="#DF0827"/>
			<stop offset="1" stop-color="#ED6728"/>
		</linearGradient>
	</defs>
	<path fill="url(#gradient_13)" d="M675.854 280.625L676.178 280.894C676.571 282.23 676.199 283.402 675.97 284.752L676.375 285.123C684.637 278.912 696.142 277.659 704.358 271.655C708.992 268.27 715.975 269.138 718.824 267.239L718.892 265.869L719.814 265.665C719.521 268.757 718.998 271.875 718.813 274.969C725.57 275.228 730.868 274.134 737.334 272.358C739.573 271.743 741.984 270.839 744.283 270.597C751.11 268.206 758.293 267.109 765.222 265.084C764.428 275.617 762.193 286.143 760.814 296.625C745.461 302.246 729.048 305.971 713.338 310.615C712.482 316.394 708.501 333.864 710.411 338.484C712.44 339.097 714.584 338.7 716.626 338.292C722.587 337.101 728.526 334.814 734.36 333.083C746.408 329.509 758.488 325.939 770.6 322.589L761.512 361.552C727.049 371.382 692.163 380.958 658.269 392.617C662.821 375.611 664.821 357.578 667.375 340.179C667.962 336.175 668.991 323.534 670.339 320.671C670.666 314.309 674.174 286.017 675.854 280.625Z"/>
	<defs>
		<linearGradient id="gradient_14" gradientUnits="userSpaceOnUse" x1="715.5766" y1="296.77133" x2="701.31256" y2="270.86609">
			<stop offset="0" stop-color="#EC6328"/>
			<stop offset="1" stop-color="#F5952B"/>
		</linearGradient>
	</defs>
	<path fill="url(#gradient_14)" d="M675.854 280.625L676.178 280.894C676.571 282.23 676.199 283.402 675.97 284.752L676.375 285.123C684.637 278.912 696.142 277.659 704.358 271.655C708.992 268.27 715.975 269.138 718.824 267.239L718.892 265.869L719.814 265.665C719.521 268.757 718.998 271.875 718.813 274.969C725.57 275.228 730.868 274.134 737.334 272.358C739.573 271.743 741.984 270.839 744.283 270.597C744.435 270.602 744.586 270.61 744.738 270.611C748.466 270.642 751.896 268.974 755.638 268.768C755.074 269.294 754.706 269.524 753.98 269.791C748.646 271.749 744.789 277.137 740.019 280.254C735.761 283.038 731.295 285.502 727.066 288.333C717.999 294.404 709.082 300.94 699.542 306.277C696.032 308.241 692.105 309.416 688.549 311.315C683.221 314.16 673.451 313.661 671.224 319.846C670.968 320.559 671.096 320.244 670.625 321.052L670.339 320.671C670.666 314.309 674.174 286.017 675.854 280.625Z"/>
	<defs>
		<linearGradient id="gradient_15" gradientUnits="userSpaceOnUse" x1="620.42255" y1="725.84552" x2="630.86536" y2="571.37543">
			<stop offset="0" stop-color="#DD0028"/>
			<stop offset="1" stop-color="#F28128"/>
		</linearGradient>
	</defs>
	<path fill="url(#gradient_15)" d="M619.117 512.926C619.474 514.29 619.443 515.742 619.505 517.144C620.815 516.476 620.762 514.344 621.577 513.12C622.473 511.774 632.083 505.296 633.775 504.636C637.637 503.13 644.833 502.808 648.986 502.719C650.702 502.683 654.068 503.172 655.476 502.708C655.995 502.537 657.004 501.499 657.481 501.121C657.983 501.578 658.253 501.871 658.627 502.456Q655.801 531.589 652.431 560.664C651.284 571.326 650.509 582.151 649.006 592.759C644.66 638.671 638.86 684.496 638.982 730.684C637.269 728.3 635.522 725.899 634.085 723.336C631.645 718.986 629.051 709.734 625.203 706.915C623.069 708.293 621.754 712.602 620.132 714.765C613.798 708.632 612.54 701.855 610.584 693.578C609.509 695.531 608.692 697.39 606.8 698.678L605.466 698.881C603.982 697.693 603.64 696.45 603.396 694.591C602.78 689.897 608.846 611.264 610.375 607.182C610.819 594.209 612.648 581.011 613.952 568.091L619.117 512.926Z"/>
	<defs>
		<linearGradient id="gradient_16" gradientUnits="userSpaceOnUse" x1="644.91797" y1="574.53381" x2="624.41266" y2="506.59171">
			<stop offset="0" stop-color="#F48D28"/>
			<stop offset="1" stop-color="#FFE134"/>
		</linearGradient>
	</defs>
	<path fill="url(#gradient_16)" d="M619.117 512.926C619.474 514.29 619.443 515.742 619.505 517.144C620.815 516.476 620.762 514.344 621.577 513.12C622.473 511.774 632.083 505.296 633.775 504.636C637.637 503.13 644.833 502.808 648.986 502.719C650.702 502.683 654.068 503.172 655.476 502.708C655.995 502.537 657.004 501.499 657.481 501.121C657.983 501.578 658.253 501.871 658.627 502.456Q655.801 531.589 652.431 560.664C651.284 571.326 650.509 582.151 649.006 592.759L648.201 592.602C648.234 588.804 650.877 575.68 649.616 573.214C646.068 571.816 624.133 578.2 619.629 580.147C617.353 581.13 615.287 582.389 613.296 583.86C613.096 589.441 612.687 602.494 610.375 607.182C610.819 594.209 612.648 581.011 613.952 568.091L619.117 512.926Z"/>
	<path fill="#E52F27" d="M496.835 614.546C495.282 625.992 493.101 643.838 489.494 654.453C486.746 656.494 483.365 658.015 480.395 659.756L479.007 668.255L471.207 713.909C469.038 726.889 466.439 740.283 466.462 753.481C461.17 749.888 456.434 745.54 451.5 741.483C450.372 744.426 449.451 747.366 448.597 750.399C445.575 746.622 443.876 742.998 442.204 738.481C440.975 740.336 439.656 742.983 437.77 744.185C436.516 743.842 436.195 743.368 435.577 742.221C435.019 741.185 434.566 740.071 434.093 738.993Q436.028 728.225 438.163 717.494C425.951 723.052 417.468 726.67 404.155 721.745C393.986 717.984 384.069 709.223 379.686 699.218C379.525 698.85 379.337 698.436 379.215 698.049C379.387 694.703 375.981 687.984 375.425 683.421C375.59 682.796 375.794 682.317 376.232 681.83C379.576 678.111 400.904 668.588 405.798 669.056C408.785 669.342 408.322 673.473 409.51 675.474L409.859 674.515C412.049 677.793 414.199 680.081 417.848 681.735C424.065 684.554 432.106 683.809 438.38 681.379C444.171 679.136 446.656 676.345 449.144 670.917C449.767 667.719 450.277 664.517 450.752 661.294C446.981 662.554 438.604 667.338 435.058 666.948C434.317 664.854 434.772 662.634 434.739 660.448C434.666 655.52 434.057 648.742 431.347 644.529C431.248 644.376 431.144 644.226 431.044 644.074C430.899 643.849 430.758 643.621 430.612 643.397C430.523 643.262 430.43 643.131 430.339 642.998C430.418 642.855 430.48 642.702 430.575 642.569C434.483 637.086 487.298 617.069 496.835 614.546Z"/>
	<path fill="#EE6628" d="M496.835 614.546C495.282 625.992 493.101 643.838 489.494 654.453C486.746 656.494 483.365 658.015 480.395 659.756L479.007 668.255C478.862 668.41 478.698 668.549 478.572 668.72C476.015 672.183 476.941 684.818 473.915 685.126C471.111 685.412 467.661 683.79 464.755 683.656C460.547 683.463 456.061 685.057 451.792 685.141C444.596 685.282 437.392 684.077 430.158 684.255C435.778 683.028 444.662 681.495 447.884 676.147C448.874 674.505 449.416 672.838 449.144 670.917C449.767 667.719 450.277 664.517 450.752 661.294C446.981 662.554 438.604 667.338 435.058 666.948C434.317 664.854 434.772 662.634 434.739 660.448C434.666 655.52 434.057 648.742 431.347 644.529C431.248 644.376 431.144 644.226 431.044 644.074C430.899 643.849 430.758 643.621 430.612 643.397C430.523 643.262 430.43 643.131 430.339 642.998C430.418 642.855 430.48 642.702 430.575 642.569C434.483 637.086 487.298 617.069 496.835 614.546Z"/>
	<defs>
		<linearGradient id="gradient_17" gradientUnits="userSpaceOnUse" x1="490.11639" y1="366.2489" x2="470.43701" y2="311.29642">
			<stop offset="0" stop-color="#EF7027"/>
			<stop offset="1" stop-color="#FEC72F"/>
		</linearGradient>
	</defs>
	<path fill="url(#gradient_17)" d="M462.481 291.612C472.885 288.739 483.046 284.618 493.018 280.511C497.429 278.695 501.962 276.368 506.512 274.981C507.668 274.629 507.816 274.51 508.974 274.98C511.702 280.141 508.007 293.799 506.825 299.537C505.509 311.24 503.257 322.862 501.467 334.503L492.262 397.448C490.004 412.964 486.953 428.767 485.874 444.407C478.634 447.302 471.69 450.817 464.578 454.003C457.117 457.345 449.474 460.31 441.879 463.334C442.189 449.982 445.547 435.323 447.522 422.04C448.311 416.732 448.635 408.562 450.375 403.767C450.694 394.642 453.247 382.782 454.533 373.403Q458.442 344.397 461.916 315.336C462.42 307.4 462.545 299.559 462.481 291.612Z"/>
	<path fill="#E52F27" d="M450.375 403.767C453.603 401.215 452.518 379.828 455.533 375.605C459.143 370.547 487.026 363.329 493.787 363.373C498.679 367.101 490.416 389.927 491.996 396.505C492.073 396.822 492.174 397.133 492.262 397.448C490.004 412.964 486.953 428.767 485.874 444.407C478.634 447.302 471.69 450.817 464.578 454.003C457.117 457.345 449.474 460.31 441.879 463.334C442.189 449.982 445.547 435.323 447.522 422.04C448.311 416.732 448.635 408.562 450.375 403.767Z"/>
	<path fill="#FDCE31" d="M462.481 291.612C472.885 288.739 483.046 284.618 493.018 280.511C497.429 278.695 501.962 276.368 506.512 274.981C507.668 274.629 507.816 274.51 508.974 274.98C511.702 280.141 508.007 293.799 506.825 299.537L505.952 299.853C506.022 300.673 506.159 300.815 505.739 301.559L505.204 301.369C504.178 301.018 503.163 300.652 502.065 300.633C496.351 300.531 476.501 311.152 470.476 314.174C467.454 315.689 464.364 317.325 462.43 320.192C461.83 319.728 461.997 320.013 461.831 319.401L462.861 320.197L461.867 318.907C461.954 318.683 462.06 318.467 462.128 318.237C462.473 317.072 462.22 316.467 461.916 315.336C462.42 307.4 462.545 299.559 462.481 291.612Z"/>
	<path fill="#E52F27" d="M333.351 608.176C347.256 602.934 360.789 594.939 373.758 587.702C373.006 595.224 371.299 602.576 369.914 609.996Q366.781 626.917 363.914 643.885L356.842 687.502C355.659 694.887 354.893 702.633 353.156 709.895C351.297 727.973 347.495 746.128 344.835 764.129C343.269 774.729 342.99 785.906 340.899 796.365C336.992 792.617 333.715 789.446 331.198 784.602L330.244 782.784C330.111 786.425 329.885 789.861 329.136 793.432C323.154 786.946 320.18 781.675 317.513 773.325C314.227 778.356 311.097 783.751 307.114 788.265C306.51 784.233 306.413 780.483 306.627 776.415C307.348 762.633 309.781 748.83 311.828 735.191C312.531 730.504 312.767 724.629 314.373 720.257C314.815 713.683 316.258 706.978 317.297 700.459Q320.171 681.906 323.491 663.429C326.798 645.038 329.405 626.437 333.351 608.176Z"/>
	<defs>
		<linearGradient id="gradient_18" gradientUnits="userSpaceOnUse" x1="360.82953" y1="678.99902" x2="330.81757" y2="606.56281">
			<stop offset="0" stop-color="#F07126"/>
			<stop offset="1" stop-color="#FFE434"/>
		</linearGradient>
	</defs>
	<path fill="url(#gradient_18)" d="M333.351 608.176C347.256 602.934 360.789 594.939 373.758 587.702C373.006 595.224 371.299 602.576 369.914 609.996Q366.781 626.917 363.914 643.885L356.842 687.502C355.659 694.887 354.893 702.633 353.156 709.895C350.845 706.061 357.651 688.644 356.47 683.289C356.152 681.843 355.885 681.766 354.717 680.997C353.495 680.894 352.609 680.945 351.438 681.34C347.534 682.657 322.283 692.789 320.332 694.444C316.007 698.112 317.636 717.833 314.373 720.257C314.815 713.683 316.258 706.978 317.297 700.459Q320.171 681.906 323.491 663.429C326.798 645.038 329.405 626.437 333.351 608.176Z"/>
	<defs>
		<linearGradient id="gradient_19" gradientUnits="userSpaceOnUse" x1="452.94467" y1="655.54492" x2="423.09222" y2="567.59058">
			<stop offset="0" stop-color="#EE6225"/>
			<stop offset="1" stop-color="#FFE534"/>
		</linearGradient>
	</defs>
	<path fill="url(#gradient_19)" d="M379.215 698.049C377.318 694.777 376.001 690.906 375.038 687.259C368.517 662.561 375.512 635.536 388.102 614.017C412.643 572.071 458.483 552.681 503.418 541.071C502.143 551.839 493.396 558.384 485.401 564.707C486.591 564.804 487.82 564.865 488.996 565.072C490.144 565.275 490.759 565.45 491.432 566.434C487.521 575.189 486.956 579.744 484.738 588.918C457.234 598.739 428.503 612.192 414.263 639.278C408.381 650.465 406.058 662.304 409.859 674.515L409.51 675.474C408.322 673.473 408.785 669.342 405.798 669.056C400.904 668.588 379.576 678.111 376.232 681.83C375.794 682.317 375.59 682.796 375.425 683.421C375.981 687.984 379.387 694.703 379.215 698.049Z"/>
	<defs>
		<linearGradient id="gradient_20" gradientUnits="userSpaceOnUse" x1="400.23676" y1="393.29489" x2="376.61609" y2="311.24686">
			<stop offset="0" stop-color="#EC6426"/>
			<stop offset="1" stop-color="#FFDA32"/>
		</linearGradient>
	</defs>
	<path fill="url(#gradient_20)" d="M371.82 312.559C379.674 311.977 387.404 309.66 395.096 308.067C401.692 306.702 408.386 306.134 415.011 304.982C421.303 303.888 427.564 301.793 433.828 300.856C436.554 300.448 439.493 300.576 442.26 300.34C443.193 299.889 443.444 299.506 443.89 298.618C444.708 296.989 445.22 295.919 446.95 295.177Q428.051 328.675 412.642 363.914C407.712 375.035 403.337 386.513 398.139 397.493C398.107 397.245 398.066 396.998 398.043 396.749C397.82 394.312 400.028 391.748 400.406 389.317C400.2 389.393 399.997 389.477 399.789 389.547C398.925 389.837 398.158 389.774 397.262 389.753C394.912 389.698 392.792 390.132 390.559 390.852C384.765 392.72 379.254 395.632 373.571 397.836C365.381 401.012 343.524 406.732 337.776 412.118C332.974 416.617 333.996 426.257 328.721 430.086C334.918 415.197 340.378 399.988 346.005 384.876Q359.509 348.931 371.82 312.559Z"/>
	<defs>
		<linearGradient id="gradient_21" gradientUnits="userSpaceOnUse" x1="717.50116" y1="662.97162" x2="688.07269" y2="583.07898">
			<stop offset="0" stop-color="#E00928"/>
			<stop offset="1" stop-color="#EC5B28"/>
		</linearGradient>
	</defs>
	<path fill="url(#gradient_21)" d="M672.379 601.852C675.423 598.454 672.526 591.887 676.158 588.607C680.148 585.005 705.278 578.457 710.757 579.128C712.366 579.325 713.586 579.828 714.6 581.046C714.217 583.367 711.579 584.595 710.473 586.55C709.756 587.817 709.479 589.635 709.149 591.049L709.982 591.4C708.727 598.464 704.886 614.113 706.497 620.935L707.318 621.682C713.646 620.968 720.234 618.024 726.221 615.916C735.872 612.518 745.493 608.963 755.238 605.846C752.05 621.978 747.485 637.988 744.701 654.161C734.183 658.243 722.96 661.154 712.199 664.569C699.384 668.637 686.376 673.449 673.279 676.426C671.142 676.912 668.207 677.614 666.083 677.071C664.831 675.106 664.725 672.229 664.71 669.944C664.632 658.163 667.425 640.009 668.879 627.968C669.887 619.629 670.327 610.39 672.243 602.237C672.274 602.104 672.334 601.98 672.379 601.852Z"/>
	<defs>
		<linearGradient id="gradient_22" gradientUnits="userSpaceOnUse" x1="729.02545" y1="518.06897" x2="715.8786" y2="477.73822">
			<stop offset="0" stop-color="#FBBB2C"/>
			<stop offset="1" stop-color="#FFE036"/>
		</linearGradient>
	</defs>
	<path fill="url(#gradient_22)" d="M674.817 490.754C684.367 486.967 694.515 484.127 704.311 481.016C726.561 473.948 749.037 467.418 771.186 460.067C770.242 473.029 766.444 485.634 765.943 498.68C755.753 501.733 728.875 509.337 721.49 514.817C720.744 517.326 720.322 519.928 719.824 522.496C710.05 519.388 697.802 522.873 688.924 527.429C686.558 528.643 683.906 529.741 682.854 532.311C682.553 533.047 682.225 533.771 681.928 534.509L681.355 534.408C681.492 532.354 681.795 530.305 682.044 528.262C678.911 529.133 675.837 530.235 672.756 531.276C675.297 517.213 676.968 505.116 674.817 490.754Z"/>
	<defs>
		<linearGradient id="gradient_23" gradientUnits="userSpaceOnUse" x1="720.45929" y1="580.49548" x2="704.35529" y2="522.05963">
			<stop offset="0" stop-color="#EC6227"/>
			<stop offset="1" stop-color="#FCB92D"/>
		</linearGradient>
	</defs>
	<path fill="url(#gradient_23)" d="M681.355 534.408L681.928 534.509C682.225 533.771 682.553 533.047 682.854 532.311C683.906 529.741 686.558 528.643 688.924 527.429C697.802 522.873 710.05 519.388 719.824 522.496C718.776 529.427 716.594 537.755 717.104 544.725C721.039 546.236 753.179 534.374 758.362 532.315C755.804 544.992 753.42 557.772 750.537 570.374C739.757 575.336 720.607 578.995 711.838 585.408C711.178 587.395 710.496 589.369 709.982 591.4L709.149 591.049C709.479 589.635 709.756 587.817 710.473 586.55C711.579 584.595 714.217 583.367 714.6 581.046C713.586 579.828 712.366 579.325 710.757 579.128C705.278 578.457 680.148 585.005 676.158 588.607C672.526 591.887 675.423 598.454 672.379 601.852C673.107 588.685 675.638 575.165 677.418 562.094C678.643 553.096 679.171 543.194 681.355 534.408Z"/>
	<defs>
		<linearGradient id="gradient_24" gradientUnits="userSpaceOnUse" x1="540.46313" y1="593.74921" x2="521.82568" y2="542.67206">
			<stop offset="0" stop-color="#F9A42B"/>
			<stop offset="1" stop-color="#FFDF34"/>
		</linearGradient>
	</defs>
	<path fill="url(#gradient_24)" d="M518.515 545.809C527.349 538.224 541.882 534.925 552.721 530.878C551.927 539.603 550.283 548.328 549.137 557.02C547.469 569.663 546.112 582.366 544.156 594.967L543.581 595.219C543.431 594.184 543.398 593.302 543.478 592.259C540.203 591.039 518.951 599.59 514.789 601.653C512.887 602.596 511.925 604.017 511.357 605.995C510.651 608.454 510.785 611.199 509.926 613.569L509.359 613.416C509.697 604.819 511.343 595.87 512.395 587.303C513.606 577.434 515.379 554.041 518.515 545.809Z"/>
	<defs>
		<linearGradient id="gradient_25" gradientUnits="userSpaceOnUse" x1="595.26117" y1="578.39227" x2="578.37714" y2="526.56714">
			<stop offset="0" stop-color="#F8A12A"/>
			<stop offset="1" stop-color="#FFDC34"/>
		</linearGradient>
	</defs>
	<path fill="url(#gradient_25)" d="M575.016 529.364Q589.501 522.949 604.153 516.927C603.858 538.165 601.793 564.063 598.351 585.052C598.11 583.818 597.954 582.786 598.154 581.531C598.313 580.532 598.656 579.103 598.087 578.214C597.476 577.257 596.475 576.705 595.388 576.455C588.001 574.758 575.136 580.876 568.819 584.459C570.43 577.106 571 569.377 571.91 561.907C573.22 551.161 574.843 540.204 575.016 529.364Z"/>
	<path fill="#EE6628" d="M949.901 202.355C951.535 200.828 950.976 198.526 952.345 196.999C954.768 194.297 965.737 193.629 969.151 193.663L969.558 194.082L969.009 194.376L969.713 193.864C970.298 196.954 965.204 204.484 966.265 206.053C959.332 221.058 942.734 233.898 929.314 242.938C931.247 242.386 933.823 241.36 935.772 242.13C932.715 245.921 888.11 260.492 879.64 262.524C906.473 248.858 936.869 230.833 949.901 202.355Z"/>
</svg>
